<?xml version="1.0" standalone="no"?>
<!DOCTYPE svg PUBLIC "-//W3C//DTD SVG 20010904//EN"
 "http://www.w3.org/TR/2001/REC-SVG-20010904/DTD/svg10.dtd">
<svg version="1.0" xmlns="http://www.w3.org/2000/svg"
 width="512.000000pt" height="512.000000pt" viewBox="0 0 512.000000 512.000000"
 preserveAspectRatio="xMidYMid meet">

<g transform="translate(0.000000,512.000000) scale(0.100000,-0.100000)"
fill="#000000" stroke="none">
<path d="M3250 4344 c-45 -20 -68 -41 -91 -86 -22 -44 -24 -106 -5 -151 8 -18
295 -312 675 -692 364 -363 661 -663 661 -667 0 -5 -978 -8 -2173 -8 l-2173 0
-44 -22 c-132 -67 -132 -249 0 -315 l44 -23 2173 0 c1195 0 2173 -3 2173 -7 0
-4 -294 -298 -654 -655 -467 -462 -660 -660 -675 -691 -26 -54 -27 -116 -2
-165 23 -46 46 -67 94 -87 46 -19 88 -19 135 0 51 22 1684 1653 1712 1711 24
49 25 92 5 142 -22 51 -1653 1684 -1711 1712 -48 24 -96 25 -144 4z"/>
</g>
</svg>
